<svg version="1.1" xmlns="http://www.w3.org/2000/svg" xmlns:xlink="http://www.w3.org/1999/xlink" width="516" height="580"><defs/><g><g transform="translate(-174,-94) scale(1,1)"><rect fill="#C0C0C0" stroke="none" x="351" y="111" width="336" height="560" opacity="0.2"/></g><g transform="translate(-174,-94) scale(1,1)"><rect fill="#ffffff" stroke="none" x="344" y="104" width="336" height="560"/></g><g transform="translate(-174,-94) scale(1,1)"><path fill="none" stroke="#000000" d="M 344 104 L 680 104 L 680 664 L 344 664 L 344 104 Z Z" stroke-miterlimit="10"/></g><g transform="translate(-174,-94) scale(1,1)"><g><path fill="none" stroke="none"/><text fill="#000000" stroke="none" font-family="Arial" font-size="13px" font-style="normal" font-weight="bold" text-decoration="none" x="462.99609375" y="123.5">My RSS Website</text></g></g><g transform="translate(-174,-94) scale(1,1)"><path fill="#ffffff" stroke="none" d="M 224.40935031960228 273.68 C 224.40935031960228 268.886167936 228.29519264454774 265 233.088623046875 265 C 237.88205344920226 265 241.76789577414772 268.886167936 241.76789577414772 273.68 C 241.76789577414772 278.473832064 237.88205344920226 282.36 233.088623046875 282.36 C 228.29519264454774 282.36 224.40935031960228 278.473832064 224.40935031960228 273.68 Z"/></g><g transform="translate(-174,-94) scale(1,1)"><path fill="none" stroke="#000000" d="M 224.40935031960228 273.68 C 224.40935031960228 268.886167936 228.29519264454774 265 233.088623046875 265 C 237.88205344920226 265 241.76789577414772 268.886167936 241.76789577414772 273.68 C 241.76789577414772 278.473832064 237.88205344920226 282.36 233.088623046875 282.36 C 228.29519264454774 282.36 224.40935031960228 278.473832064 224.40935031960228 273.68 Z" stroke-miterlimit="10"/></g><g transform="translate(-174,-94) scale(1,1)"><path fill="none" stroke="#000000" d="M 233.088623046875 282.36 L 233.088623046875 299.64" stroke-miterlimit="10"/></g><g transform="translate(-174,-94) scale(1,1)"><path fill="none" stroke="#000000" d="M 223.89880486505683 288.84 L 242.27844122869317 288.84" stroke-miterlimit="10"/></g><g transform="translate(-174,-94) scale(1,1)"><path fill="none" stroke="#000000" d="M 233.088623046875 299.64 L 220.32498668323865 317" stroke-miterlimit="10"/></g><g transform="translate(-174,-94) scale(1,1)"><path fill="none" stroke="#000000" d="M 233.088623046875 299.64 L 245.85225941051135 317" stroke-miterlimit="10"/></g><g transform="translate(-174,-94) scale(1,1)"><g><path fill="none" stroke="none"/><text fill="#000000" stroke="none" font-family="Arial" font-size="13px" font-style="normal" font-weight="bold" text-decoration="none" x="219.364990234375" y="337.5">User</text></g></g><g transform="translate(-174,-94) scale(1,1)"><path fill="#ffffff" stroke="none" d="M 222.43571750710228 441.68 C 222.43571750710228 436.886167936 226.32155983204774 433 231.114990234375 433 C 235.90842063670226 433 239.79426296164772 436.886167936 239.79426296164772 441.68 C 239.79426296164772 446.473832064 235.90842063670226 450.36 231.114990234375 450.36 C 226.32155983204774 450.36 222.43571750710228 446.473832064 222.43571750710228 441.68 Z"/></g><g transform="translate(-174,-94) scale(1,1)"><path fill="none" stroke="#000000" d="M 222.43571750710228 441.68 C 222.43571750710228 436.886167936 226.32155983204774 433 231.114990234375 433 C 235.90842063670226 433 239.79426296164772 436.886167936 239.79426296164772 441.68 C 239.79426296164772 446.473832064 235.90842063670226 450.36 231.114990234375 450.36 C 226.32155983204774 450.36 222.43571750710228 446.473832064 222.43571750710228 441.68 Z" stroke-miterlimit="10"/></g><g transform="translate(-174,-94) scale(1,1)"><path fill="none" stroke="#000000" d="M 231.114990234375 450.36 L 231.114990234375 467.64" stroke-miterlimit="10"/></g><g transform="translate(-174,-94) scale(1,1)"><path fill="none" stroke="#000000" d="M 221.92517205255683 456.84 L 240.30480841619317 456.84" stroke-miterlimit="10"/></g><g transform="translate(-174,-94) scale(1,1)"><path fill="none" stroke="#000000" d="M 231.114990234375 467.64 L 218.35135387073865 485" stroke-miterlimit="10"/></g><g transform="translate(-174,-94) scale(1,1)"><path fill="none" stroke="#000000" d="M 231.114990234375 467.64 L 243.87862659801135 485" stroke-miterlimit="10"/></g><g transform="translate(-174,-94) scale(1,1)"><g><path fill="none" stroke="none"/><text fill="#000000" stroke="none" font-family="Arial" font-size="13px" font-style="normal" font-weight="bold" text-decoration="none" x="192.825927734375" y="505.5">Administrator</text></g></g><g transform="translate(-174,-94) scale(1,1)"><path fill="none" stroke="#000000" d="M 231 431 L 233 344" stroke-miterlimit="10"/></g><g transform="translate(-174,-94) scale(1,1)"><path fill="#FFFFFF" stroke="none" d="M 240.94968577997 364.5134710860874 L 233 344 L 224.1160622126725 364.1264912339656"/></g><g transform="translate(-174,-94) scale(1,1)"><path fill="none" stroke="#000000" d="M 240.94968577997 364.5134710860874 L 233 344 L 224.1160622126725 364.1264912339656 L 240.94968577997 364.5134710860874" stroke-miterlimit="10"/></g><g transform="translate(-174,-94) scale(1,1)"><path fill="#C0C0C0" stroke="none" d="M 474 184 C 474 174.6111584 490.1177472 167 510 167 C 529.8822528 167 546 174.6111584 546 184 C 546 193.3888416 529.8822528 201 510 201 C 490.1177472 201 474 193.3888416 474 184 Z" opacity="0.2"/></g><g transform="translate(-174,-94) scale(1,1)"><path fill="#ffffff" stroke="none" d="M 467 177 C 467 167.6111584 483.1177472 160 503 160 C 522.8822528 160 539 167.6111584 539 177 C 539 186.3888416 522.8822528 194 503 194 C 483.1177472 194 467 186.3888416 467 177 Z"/></g><g transform="translate(-174,-94) scale(1,1)"><path fill="none" stroke="#000000" d="M 467 177 C 467 167.6111584 483.1177472 160 503 160 C 522.8822528 160 539 167.6111584 539 177 C 539 186.3888416 522.8822528 194 503 194 C 483.1177472 194 467 186.3888416 467 177 Z" stroke-miterlimit="10"/></g><g transform="translate(-174,-94) scale(1,1)"><g><path fill="none" stroke="none"/><text fill="#000000" stroke="none" font-family="Arial" font-size="13px" font-style="normal" font-weight="bold" text-decoration="none" x="486.3818359375" y="184">NULL</text></g></g><g transform="translate(-174,-94) scale(1,1)"><path fill="#C0C0C0" stroke="none" d="M 450 250 C 450 235.6405952 476.862912 224 510 224 C 543.137088 224 570 235.6405952 570 250 C 570 264.3594048 543.137088 276 510 276 C 476.862912 276 450 264.3594048 450 250 Z" opacity="0.2"/></g><g transform="translate(-174,-94) scale(1,1)"><path fill="#ffffff" stroke="none" d="M 443 243 C 443 228.6405952 469.862912 217 503 217 C 536.137088 217 563 228.6405952 563 243 C 563 257.3594048 536.137088 269 503 269 C 469.862912 269 443 257.3594048 443 243 Z"/></g><g transform="translate(-174,-94) scale(1,1)"><path fill="none" stroke="#000000" d="M 443 243 C 443 228.6405952 469.862912 217 503 217 C 536.137088 217 563 228.6405952 563 243 C 563 257.3594048 536.137088 269 503 269 C 469.862912 269 443 257.3594048 443 243 Z" stroke-miterlimit="10"/></g><g transform="translate(-174,-94) scale(1,1)"><g><path fill="none" stroke="none"/><text fill="#000000" stroke="none" font-family="Arial" font-size="13px" font-style="normal" font-weight="bold" text-decoration="none" x="474.933837890625" y="243.5">Validation</text><text fill="#000000" stroke="none" font-family="Arial" font-size="13px" font-style="normal" font-weight="bold" text-decoration="none" x="474.102294921875" y="256.5">formulaire</text></g></g><g transform="translate(-174,-94) scale(1,1)"><path fill="#C0C0C0" stroke="none" d="M 438 325 C 438 310.6405952 470.2354944 299 510 299 C 549.7645056 299 582 310.6405952 582 325 C 582 339.3594048 549.7645056 351 510 351 C 470.2354944 351 438 339.3594048 438 325 Z" opacity="0.2"/></g><g transform="translate(-174,-94) scale(1,1)"><path fill="#ffffff" stroke="none" d="M 431 318 C 431 303.6405952 463.2354944 292 503 292 C 542.7645056 292 575 303.6405952 575 318 C 575 332.3594048 542.7645056 344 503 344 C 463.2354944 344 431 332.3594048 431 318 Z"/></g><g transform="translate(-174,-94) scale(1,1)"><path fill="none" stroke="#000000" d="M 431 318 C 431 303.6405952 463.2354944 292 503 292 C 542.7645056 292 575 303.6405952 575 318 C 575 332.3594048 542.7645056 344 503 344 C 463.2354944 344 431 332.3594048 431 318 Z" stroke-miterlimit="10"/></g><g transform="translate(-174,-94) scale(1,1)"><g><path fill="none" stroke="none"/><text fill="#000000" stroke="none" font-family="Arial" font-size="13px" font-style="normal" font-weight="bold" text-decoration="none" x="465.06640625" y="318.5">Consulter les</text><text fill="#000000" stroke="none" font-family="Arial" font-size="13px" font-style="normal" font-weight="bold" text-decoration="none" x="487.825927734375" y="331.5">news</text></g></g><g transform="translate(-174,-94) scale(1,1)"><path fill="#C0C0C0" stroke="none" d="M 449 400 C 449 385.6405952 476.3106272 374 510 374 C 543.6893728 374 571 385.6405952 571 400 C 571 414.3594048 543.6893728 426 510 426 C 476.3106272 426 449 414.3594048 449 400 Z" opacity="0.2"/></g><g transform="translate(-174,-94) scale(1,1)"><path fill="#ffffff" stroke="none" d="M 442 393 C 442 378.6405952 469.3106272 367 503 367 C 536.6893728 367 564 378.6405952 564 393 C 564 407.3594048 536.6893728 419 503 419 C 469.3106272 419 442 407.3594048 442 393 Z"/></g><g transform="translate(-174,-94) scale(1,1)"><path fill="none" stroke="#000000" d="M 442 393 C 442 378.6405952 469.3106272 367 503 367 C 536.6893728 367 564 378.6405952 564 393 C 564 407.3594048 536.6893728 419 503 419 C 469.3106272 419 442 407.3594048 442 393 Z" stroke-miterlimit="10"/></g><g transform="translate(-174,-94) scale(1,1)"><g><path fill="none" stroke="none"/><text fill="#000000" stroke="none" font-family="Arial" font-size="13px" font-style="normal" font-weight="bold" text-decoration="none" x="495.049560546875" y="393.5">Se</text><text fill="#000000" stroke="none" font-family="Arial" font-size="13px" font-style="normal" font-weight="bold" text-decoration="none" x="467.224609375" y="406.5">déconnecter</text></g></g><g transform="translate(-174,-94) scale(1,1)"><path fill="#C0C0C0" stroke="none" d="M 434 475 C 434 460.6405952 468.0263552 449 510 449 C 551.9736448 449 586 460.6405952 586 475 C 586 489.3594048 551.9736448 501 510 501 C 468.0263552 501 434 489.3594048 434 475 Z" opacity="0.2"/></g><g transform="translate(-174,-94) scale(1,1)"><path fill="#ffffff" stroke="none" d="M 427 468 C 427 453.6405952 461.0263552 442 503 442 C 544.9736448 442 579 453.6405952 579 468 C 579 482.3594048 544.9736448 494 503 494 C 461.0263552 494 427 482.3594048 427 468 Z"/></g><g transform="translate(-174,-94) scale(1,1)"><path fill="none" stroke="#000000" d="M 427 468 C 427 453.6405952 461.0263552 442 503 442 C 544.9736448 442 579 453.6405952 579 468 C 579 482.3594048 544.9736448 494 503 494 C 461.0263552 494 427 482.3594048 427 468 Z" stroke-miterlimit="10"/></g><g transform="translate(-174,-94) scale(1,1)"><g><path fill="none" stroke="none"/><text fill="#000000" stroke="none" font-family="Arial" font-size="13px" font-style="normal" font-weight="bold" text-decoration="none" x="461.4482421875" y="468.5">Ajouter un flux</text><text fill="#000000" stroke="none" font-family="Arial" font-size="13px" font-style="normal" font-weight="bold" text-decoration="none" x="489.635009765625" y="481.5">RSS</text></g></g><g transform="translate(-174,-94) scale(1,1)"><path fill="#C0C0C0" stroke="none" d="M 426 550 C 426 535.6405952 463.6080768 524 510 524 C 556.3919232 524 594 535.6405952 594 550 C 594 564.3594048 556.3919232 576 510 576 C 463.6080768 576 426 564.3594048 426 550 Z" opacity="0.2"/></g><g transform="translate(-174,-94) scale(1,1)"><path fill="#ffffff" stroke="none" d="M 419 543 C 419 528.6405952 456.6080768 517 503 517 C 549.3919232 517 587 528.6405952 587 543 C 587 557.3594048 549.3919232 569 503 569 C 456.6080768 569 419 557.3594048 419 543 Z"/></g><g transform="translate(-174,-94) scale(1,1)"><path fill="none" stroke="#000000" d="M 419 543 C 419 528.6405952 456.6080768 517 503 517 C 549.3919232 517 587 528.6405952 587 543 C 587 557.3594048 549.3919232 569 503 569 C 456.6080768 569 419 557.3594048 419 543 Z" stroke-miterlimit="10"/></g><g transform="translate(-174,-94) scale(1,1)"><g><path fill="none" stroke="none"/><text fill="#000000" stroke="none" font-family="Arial" font-size="13px" font-style="normal" font-weight="bold" text-decoration="none" x="463.98095703125" y="543.5">Supprimer un</text><text fill="#000000" stroke="none" font-family="Arial" font-size="13px" font-style="normal" font-weight="bold" text-decoration="none" x="477.714111328125" y="556.5">flux RSS</text></g></g><g transform="translate(-174,-94) scale(1,1)"><path fill="#C0C0C0" stroke="none" d="M 458 625 C 458 610.6405952 481.2811904 599 510 599 C 538.7188096 599 562 610.6405952 562 625 C 562 639.3594048 538.7188096 651 510 651 C 481.2811904 651 458 639.3594048 458 625 Z" opacity="0.2"/></g><g transform="translate(-174,-94) scale(1,1)"><path fill="#ffffff" stroke="none" d="M 451 618 C 451 603.6405952 474.2811904 592 503 592 C 531.7188096 592 555 603.6405952 555 618 C 555 632.3594048 531.7188096 644 503 644 C 474.2811904 644 451 632.3594048 451 618 Z"/></g><g transform="translate(-174,-94) scale(1,1)"><path fill="none" stroke="#000000" d="M 451 618 C 451 603.6405952 474.2811904 592 503 592 C 531.7188096 592 555 603.6405952 555 618 C 555 632.3594048 531.7188096 644 503 644 C 474.2811904 644 451 632.3594048 451 618 Z" stroke-miterlimit="10"/></g><g transform="translate(-174,-94) scale(1,1)"><g><path fill="none" stroke="none"/><text fill="#000000" stroke="none" font-family="Arial" font-size="13px" font-style="normal" font-weight="bold" text-decoration="none" x="479.8818359375" y="618.5">Modifier</text><text fill="#000000" stroke="none" font-family="Arial" font-size="13px" font-style="normal" font-weight="bold" text-decoration="none" x="474.051513671875" y="631.5">l'affichage</text></g></g><g transform="translate(-174,-94) scale(1,1)"><path fill="none" stroke="#000000" d="M 259 278 L 317 224 L 466 186" stroke-miterlimit="10"/></g><g transform="translate(-174,-94) scale(1,1)"><path fill="none" stroke="#000000" d="M 259 297 L 442 257" stroke-miterlimit="10"/></g><g transform="translate(-174,-94) scale(1,1)"><path fill="none" stroke="#000000" d="M 259 314 L 312 336 L 430 325" stroke-miterlimit="10"/></g><g transform="translate(-174,-94) scale(1,1)"><path fill="none" stroke="#000000" d="M 256 512 L 280 552 L 450 602" stroke-miterlimit="10"/></g><g transform="translate(-174,-94) scale(1,1)"><path fill="none" stroke="#000000" d="M 279 467 L 315 464 L 426 466" stroke-miterlimit="10"/></g><g transform="translate(-174,-94) scale(1,1)"><path fill="none" stroke="#000000" d="M 279 495 L 312 512 L 418 529" stroke-miterlimit="10"/></g><g transform="translate(-174,-94) scale(1,1)"><path fill="none" stroke="#000000" d="M 279 437 L 308 416 L 441 400" stroke-miterlimit="10"/></g></g></svg>